<?xml version="1.0" standalone="no"?>
<!DOCTYPE svg PUBLIC "-//W3C//DTD SVG 20010904//EN"
 "http://www.w3.org/TR/2001/REC-SVG-20010904/DTD/svg10.dtd">
<svg version="1.0" xmlns="http://www.w3.org/2000/svg"
 width="70.000000pt" height="70.000000pt" viewBox="0 0 70.000000 70.000000"
 preserveAspectRatio="xMidYMid meet">
<metadata>
Created by potrace 1.14, written by Peter Selinger 2001-2017
</metadata>
<g transform="translate(0.000000,70.000000) scale(0.100000,-0.100000)"
fill="#000000" stroke="none">
<path d="M160 525 c0 -16 -6 -25 -15 -25 -13 0 -15 -24 -15 -160 0 -136 2
-160 15 -160 9 0 15 -9 15 -25 l0 -25 190 0 190 0 0 35 0 35 -150 0 c-93 0
-150 4 -150 10 0 6 -9 10 -20 10 -19 0 -20 7 -20 120 0 113 1 120 20 120 11 0
20 5 20 10 0 6 57 10 150 10 l150 0 0 35 0 35 -190 0 -190 0 0 -25z"/>
</g>
</svg>
